<?xml version="1.0" encoding="utf-8"?>
<!-- Generator: Adobe Illustrator 24.0.1, SVG Export Plug-In . SVG Version: 6.00 Build 0)  -->
<svg version="1.1" id="Layer_1" xmlns="http://www.w3.org/2000/svg" xmlns:xlink="http://www.w3.org/1999/xlink" x="0px" y="0px"
	 viewBox="0 0 666 108" style="enable-background:new 0 0 666 108;" xml:space="preserve">
<style type="text/css">
	.st0{fill:#F2F2F2;stroke:#FFFFFF;stroke-miterlimit:10;}
</style>
<g>
	<g>
		<path class="st0" d="M77.33,49.38V33.89c0-6.69-1.06-7.92-8.1-7.92v-1.76h22.62v1.76c-5.9,0-6.95,1.23-6.95,7.92v36.43
			c0,6.69,1.06,7.92,6.95,7.92V80H68.79v-1.76c7.48,0,8.54-1.23,8.54-7.92V52.37h-35.2v17.95c0,6.69,1.06,7.92,8.18,7.92V80H27.26
			v-1.76c6.25,0,7.3-1.23,7.3-7.92V33.89c0-6.69-1.06-7.92-6.86-7.92v-1.76h22.35v1.76c-6.86,0-7.92,1.23-7.92,7.92v15.49H77.33z"/>
		<path class="st0" d="M155.03,52.1c0,16.63-11.7,28.6-29.13,28.6S96.77,68.74,96.77,52.1c0-16.63,11.7-28.6,29.13-28.6
			S155.03,35.47,155.03,52.1z M104.87,52.1c0,16.63,6.6,26.84,21.03,26.84s21.03-10.21,21.03-26.84c0-16.63-6.6-26.84-21.03-26.84
			S104.87,35.47,104.87,52.1z"/>
		<path class="st0" d="M158.81,24.21h23.85v1.76c-8.36,0-9.42,1.23-9.42,7.92V61.7c0,9.06,6.51,15.49,17.6,15.49
			c12.32,0,15.93-6.86,16.37-18.66l0.88-24.64c0.26-6.25-2.9-7.92-8.36-7.92v-1.76h18.92v1.76c-6.16,0.7-7.22,2.46-7.57,13.55
			l-0.7,20.59c-0.26,10.21-3.61,20.59-21.56,20.59c-14.52,0-22.62-6.16-22.62-19.18V33.89c0-6.69-1.06-7.92-7.39-7.92V24.21z"/>
		<path class="st0" d="M255.44,37.85h-1.41c-2.64-8.01-7.13-12.58-13.11-12.58c-4.31,0-10.47,3.08-10.47,9.5
			c0,14.7,28.95,11.97,28.95,29.39c0,7.13-6.42,16.54-19.89,16.54c-3.87,0-12.76-1.06-14.61-2.73c-1.76-1.58-2.02-11.26-2.29-14.17
			h1.32c1.32,3.61,5.54,15.14,16.28,15.14c5.98,0,12.67-3.52,12.67-11.26c0-15.84-28.95-11.09-28.95-29.57
			c0-7.13,5.28-14.61,18.39-14.61c4.4,0,8.98,0.53,13.11,2.64V37.85z"/>
		<path class="st0" d="M263.45,78.24c7.22,0,8.18-1.23,8.27-7.92c0.18-11.44,0.35-23.76,0.35-36.43c0-6.69-1.06-7.92-7.74-7.92
			v-1.76h42.42l1.85,10.03h-1.41c-4.05-5.02-6.51-7.92-14.78-7.92h-7.57c-4.4,0-5.19,0.44-5.19,3.52v19.18h9.06
			c7.57,0,8.27-1.14,9.59-7.66h1.94v19.18h-1.94c-0.97-6.86-2.46-8.54-8.8-8.54h-9.86v22.18c0,2.99,1.32,3.7,5.63,3.7h11.62
			c8.36,0,10.03-1.58,15.66-11h1.67c-0.88,2.29-2.29,9.77-2.99,13.11h-47.78V78.24z"/>
	</g>
	<g>
		<path class="st0" d="M359.17,62.19c0,8.76-6.9,13.87-14.01,13.87s-14.01-5.11-14.01-13.87c0-8.76,6.9-13.87,14.01-13.87
			S359.17,53.42,359.17,62.19z M336.68,62.19c0,6.55,1.79,12.49,8.49,12.49c6.69,0,8.49-5.93,8.49-12.49
			c0-6.56-1.79-12.49-8.49-12.49C338.47,49.7,336.68,55.63,336.68,62.19z"/>
		<path class="st0" d="M361.72,74.4c3.66,0,4.48-0.97,4.48-6.21V51.22h-4c0-1.79,0.76-2.07,4-2.76c0.14-11.32,4.62-19.6,14.21-19.6
			c3.79,0,6.49,1.38,6.49,3.52c0,1.1-0.9,1.86-2.14,1.86c-2.35,0-4.48-3.31-7.31-3.31c-3.38,0-6.42,2.9-6.42,13.66v4.28h7.18
			c0.62,0,0.9,0.14,0.9,0.69c0,0.35-0.28,1.04-0.35,1.31c-0.07,0.21-0.34,0.35-0.9,0.35h-6.83v16.97c0,5.24,0.83,6.21,5.38,6.21v1.1
			h-14.7V74.4z"/>
	</g>
	<g>
		<path class="st0" d="M448.37,24.91c1.32,4.84,2.29,10.21,3.52,13.64h-2.29c-7.74-11.26-8.01-11.53-19.62-11.53h-7.22
			c-2.11,0-2.46,0.7-2.55,3.87l-0.35,20.06h11c7.57,0,8.27-1.14,9.59-7.13h1.94v18.13h-1.94c-0.97-6.34-2.46-8.01-8.8-8.01h-11.79
			v17.07c0.09,6.69,1.06,7.92,8.36,7.92v1.76h-24.38v-1.76c7.22,0,8.18-1.23,8.27-7.92c0.09-9.5,0.35-27.28,0.35-36.43
			c0-6.69-1.06-7.92-7.39-7.92v-1.76H448.37z"/>
		<path class="st0" d="M467.36,58.88l-3.7,10.03c-1.14,2.99-1.58,4.22-1.58,5.9c0,2.9,2.11,3.96,5.72,4.14v1.76h-16.9v-1.76
			c5.72-0.7,7.22-2.73,14.08-20.24l6.86-17.6c1.5-3.87,2.99-7.3,2.99-8.27c0-0.88,0.09-1.06,0.44-1.58l3.96-5.98
			c0.62-0.88,0.88-1.06,1.5-1.06c1.58,0,1.41,2.55,3.96,9.15l13.2,33.88c4.05,10.21,5.1,11.18,10.56,11.7v1.76h-21.91v-1.76
			c4.75-0.53,5.98-1.41,5.98-3.17c0-1.5-0.53-3.7-1.41-5.98l-4.14-10.91H467.36z M486.1,56.42l-7.57-19.45
			c-0.53-1.41-0.97-2.9-1.23-3.87h-0.18c-1.06,3.52-3.61,9.77-4.31,11.62l-4.49,11.7H486.1z"/>
		<path class="st0" d="M562.23,78.94c6.34-0.35,7.83-1.41,7.74-5.1c-0.35-13.2-0.35-26.75-0.88-39.69h-0.18
			c-7.04,15.22-14.96,31.06-20.86,45.67h-1.23c-1.58-3.43-3.96-10.21-6.78-15.84c-2.9-5.81-8.71-18.74-13.9-30.89h-0.18
			c-0.09,14.34-0.7,27.81-0.7,35.81c0,7.13,1.58,10.03,8.01,10.03v1.76h-18.3v-1.76c5.02-0.88,6.86-2.11,7.39-9.24
			c0.88-11.26,1.32-28.42,1.32-33c0-8.98-1.23-9.68-7.92-10.03v-1.76h14.52l15.66,35.55c1.23,2.82,2.55,5.19,3.7,8.54l21.21-44.09
			h13.55v1.76c-6.95,0.44-8.45,2.11-8.45,8.89c0,3.43,0.62,22.79,0.88,38.72c0.09,3.52,2.11,4.31,7.57,4.66v1.76h-22.17V78.94z"/>
		<path class="st0" d="M590.13,78.94c7.21,0,8.18-1.23,8.27-7.92c0.18-11.44,0.35-23.76,0.35-36.43c0-6.69-1.06-7.92-7.74-7.92
			v-1.76h42.41l1.85,10.03h-1.41c-4.05-5.02-6.51-7.92-14.78-7.92h-7.57c-4.4,0-5.19,0.44-5.19,3.52v19.18h9.06
			c7.57,0,8.27-1.14,9.59-7.66h1.94v19.18h-1.94c-0.97-6.86-2.46-8.54-8.8-8.54h-9.86V74.9c0,2.99,1.32,3.7,5.63,3.7h11.62
			c8.36,0,10.03-1.58,15.66-11h1.67c-0.88,2.29-2.29,9.77-2.99,13.11h-47.78V78.94z"/>
	</g>
</g>
<g>
</g>
<g>
</g>
<g>
</g>
<g>
</g>
<g>
</g>
<g>
</g>
<g>
</g>
<g>
</g>
<g>
</g>
<g>
</g>
<g>
</g>
<g>
</g>
<g>
</g>
<g>
</g>
<g>
</g>
</svg>
